<svg id="Capa_1" data-name="Capa 1" xmlns="http://www.w3.org/2000/svg" xmlns:xlink="http://www.w3.org/1999/xlink" viewBox="0 0 841.2 1059.27"><defs><style>.cls-1{fill:url(#Degradado_sin_nombre_24);}.cls-2{fill:url(#Degradado_sin_nombre_24-2);}.cls-3{fill:url(#Degradado_sin_nombre_24-3);}</style><linearGradient id="Degradado_sin_nombre_24" x1="741.09" y1="244.66" x2="1180.79" y2="244.66" gradientUnits="userSpaceOnUse"><stop offset="0" stop-color="red"/><stop offset="1"/></linearGradient><linearGradient id="Degradado_sin_nombre_24-2" x1="539.76" y1="651.6" x2="1380.96" y2="651.6" xlink:href="#Degradado_sin_nombre_24"/><linearGradient id="Degradado_sin_nombre_24-3" x1="765.24" y1="877.23" x2="1157.65" y2="877.23" xlink:href="#Degradado_sin_nombre_24"/></defs><title>icon-admin-cip</title><path class="cls-1" d="M1068.41,38.34h0c-41.21-26.71-86.56-32.16-134.15-26.1-37.87,1.85-71.43,14.69-100.38,39.32-122,81.78-124.11,243-3.81,357.19L800.82,424.2l33.72,20.22h0c32,21.8,67.91,31.45,106.18,33.49h0c39.79,3.75,78.49.79,114.55-18.5,21.87-9.6,45.42-16.34,62.5-37.31l-26.71-12.93C1219.12,280.49,1208.82,116,1068.41,38.34Z" transform="translate(-539.76 -10)"/><path class="cls-2" d="M1377.85,707c-33.95-111.83-101.69-196.38-202-255.48-12.26-11.31-23.41-18.22-39.84-3.94-35,30.41-77.5,46.75-121.68,58.95h0c-54.47,7.26-107.86,3.5-159.75-15.59h0c-16.88-9.88-34.25-19-50.54-29.78-42-27.79-41.82-28.08-83.06,5.79h0C627.86,526.81,571.93,613.33,541.52,718c-2.9,10-2.74,19.64,4.64,28.2a565.83,565.83,0,0,0,134,113.67c10.15,6.22,17.72,5.37,18.39-7.27,2.2-40.95,21.77-76.16,35.82-113.21,25.77-47.29,71.29-71.93,114.15-99.62,50.73-24.9,105-22.57,159.23-20.9h0c52.73,13,99.56,37.25,140.22,73.32h0c39.49,45.1,68.88,95.1,74.55,156.25,1.92,20.72,11.14,16.68,23.7,8.73,44.31-28.06,84-61.39,120.14-99.48C1381.26,742,1384.1,727.57,1377.85,707Z" transform="translate(-539.76 -10)"/><path class="cls-3" d="M1157.09,879c-2.09-11,5.53-29.54-11.17-30.41-33.12-1.73-38.41-28.49-51.43-48.94h0c5-8.68,9.18-17.91,15-25.92,12.07-16.45-1.22-24.34-10.76-32.78-9.77-8.64-18-27.26-34.93-12.36-18.32,16.17-36.63,10.47-55.76,4.15h0c-12.22-6.11-16.46-18-18.31-29.72-3.41-21.46-18.7-17.55-32.66-17.54-14.17,0-27-2-33.07,17.92-11.76,38.22-34.09,48.24-67.93,30C833.3,721,827.47,739.68,815.62,749c-12.28,9.61-14.25,18.34-5,33.23,17.95,29,7,58.88-25.74,69.58-18.68,6.1-19.21,17.35-19.59,32.58s5.81,21.38,20.52,23.83c9.32,1.56,17.82,7.94,26.69,12.16-.76,16.87,21.1,31.83,6.37,49.16-18,21.15-5.75,33,8.43,49.07,15.82,17.89,28,10.17,41.92.57,7.69-5.32,16-6.5,25-5.88,16.89,9.3,36.13,15.16,37.75,40.26,1.25,19.24,17.89,15.79,30.82,15,13.28-.77,27.35,4.33,33.64-16.79,11.46-38.49,36.73-49.48,70.6-30.52,21.32,11.93,27.23-4.41,37.61-13.83,9.59-8.71,19.24-15.9,9.33-33-20.5-35.34-10.79-58.85,29.25-73.92C1155.12,896,1159.29,890.53,1157.09,879ZM961.45,978.73A101.5,101.5,0,1,1,1063,877.23,101.5,101.5,0,0,1,961.45,978.73Z" transform="translate(-539.76 -10)"/></svg>