<svg id="Capa_1" data-name="Capa 1" xmlns="http://www.w3.org/2000/svg" viewBox="0 0 1666.91 521.46"><defs><style>.cls-1{fill:#d7b56d;}.cls-2{fill:#fff;}.cls-3{fill:#e21e24;}.cls-4{fill:#2a2a29;}.cls-5{fill:#fefefe;}.cls-6{fill:#fefdfd;}.cls-7{fill:#e31f25;}.cls-8{fill:#e31e24;}</style></defs><title>logotipo_cip</title><path class="cls-1" d="M319.11,796H304.17c-3.88-.62-7.82-.37-11.71-.4-17.07-.11-33.6-3.54-50-7.89A248.86,248.86,0,0,1,193.84,769a268.52,268.52,0,0,1-69.17-50.62,274.2,274.2,0,0,1-27.18-32.68A263.72,263.72,0,0,1,78,653.4,258.86,258.86,0,0,1,59,603.62a286.72,286.72,0,0,1-6.7-33.21,182.3,182.3,0,0,1-1.44-21.53c-.2-8.81-.09-17.62,0-26.44.11-18.47,3.22-36.5,7.85-54.32a259.51,259.51,0,0,1,24-59.65A263.74,263.74,0,0,1,111,367.09c3.62-4.38,7.58-8.49,11.45-12.66a236,236,0,0,1,21-19.77,251.79,251.79,0,0,1,33.84-24.12,261.93,261.93,0,0,1,53.53-24.38,253.76,253.76,0,0,1,43.76-10.05c8.91-1.23,17.87-1.27,26.84-1.53h20.34c22.31-.3,44,3.48,65.31,9.88a259.58,259.58,0,0,1,93.58,50.85c6.28,5.36,12.43,10.87,18.17,16.81A275,275,0,0,1,525,383.45a258.77,258.77,0,0,1,42.36,95.41,179.49,179.49,0,0,1,3.51,19.86,165.94,165.94,0,0,1,.91,19.19,4.56,4.56,0,0,0,.22,2.58v29.38c-.61,3.56-.32,7.17-.4,10.74-.27,11-2.19,21.81-4.57,32.53a253.85,253.85,0,0,1-15.31,46.77,261.85,261.85,0,0,1-171.2,147.94,224.46,224.46,0,0,1-36.28,7,211.27,211.27,0,0,1-22.79.89C320.67,795.79,319.85,795.54,319.11,796Z" transform="translate(-50.32 -274.56)"/><path class="cls-2" d="M50.32,551.8c.27.07.59.14.59.48s-.32.4-.59.48Z" transform="translate(-50.32 -274.56)"/><path class="cls-3" d="M505.75,680.6c-.45-.18-.9-.34-1.34-.53l-15.36-6.94-16.23-7.35c-.36-.17-.73-.32-1.1-.47a.85.85,0,0,0-.9.16c-.37.3-.73.62-1.08.95L439,695.24c-.23.22-.45.46-.7.66a1.71,1.71,0,0,0-.51,2.32c2.5,6.17,5,12.36,7.43,18.55s4.89,12.22,7.31,18.33c.78,2,.76,2-1.07,2.94q-12.31,6.33-24.64,12.63l-13.92,7.16c-.57.29-1.15.57-1.73.83a.8.8,0,0,1-1.06-.28c-.48-.64-1-1.28-1.43-1.94q-10.19-14.33-20.36-28.66c-1.85-2.61-1.42-2.23-4-1.48q-19.78,5.66-39.55,11.42c-.38.11-.76.25-1.15.35a1.46,1.46,0,0,0-1.13,1.38c-.19,1.6-.36,3.19-.53,4.79-.55,5.35-1.08,10.69-1.64,16q-.9,8.75-1.86,17.47c-.12,1.08-.31,1.25-1.34,1.3-.64,0-1.29,0-1.93,0-6,0-12,0-18.06-.08l-27.21-.23c-2.66,0-2.68.07-2.7-2.64q-.14-17.46-.28-34.92c0-2.94.34-2.74-2.66-3.55-12.86-3.46-25.71-7-38.57-10.43-3.86-1-3.14-1.2-5.44,2l-21.16,29.27c-.28.39-.55.79-.86,1.16a.8.8,0,0,1-1.07.25c-.49-.26-1-.55-1.46-.83l-40-23.19c-2-1.16-2.05-1.06-1.17-3.36q7-18.09,13.88-36.19c.8-2.11,1.1-1.92-.66-3.78q-13.42-14.16-26.83-28.33c-2.19-2.32-1.55-2.18-4.36-.79l-35.18,17.39c-2.36,1.16-2.13,1.52-3.72-.94q-12.58-19.4-25.2-38.76c-.22-.33-.44-.67-.65-1-.78-1.28-.81-1.33.35-2.42q6.85-6.43,13.73-12.83l21.5-20c.29-.27.59-.55.86-.84a1.08,1.08,0,0,0,.31-1.1c-.13-.46-.23-.93-.37-1.4q-5.2-18.4-10.43-36.82c-.9-3.18-.33-2.6-3.68-3.06-2.22-.3-4.48-.39-6.71-.58l-21.83-1.87-13.43-1.09c-.4,0-.8,0-1.2-.08-1-.12-1.27-.35-1.33-1.33,0-.64,0-1.28,0-1.93q0-21.44.08-42.87c0-3-.44-2.94,2.94-3.33q8.23-1,16.5-1.87c4.94-.55,9.88-1.07,14.83-1.62,3.82-.43,7.64-.95,11.47-1.31a2,2,0,0,0,2-1.68c1.6-5.47,3.24-10.93,4.87-16.38,2.51-8.38,5-16.76,7.51-25.14.84-2.84,1.09-2.47-1.65-4.1L91.44,434.62c-2.28-1.36-2.11-1.12-1.1-3.49a201.41,201.41,0,0,1,20.12-36.39c1.55-2.24,3.07-4.51,4.62-6.76.32-.46.63-.93,1-1.36a.87.87,0,0,1,1.09-.23c.51.23,1,.45,1.53.69l40.09,18.84c2.16,1,1.84,1.18,3.64-.68q14.16-14.61,28.31-29.24c.28-.29.55-.59.82-.88a1.18,1.18,0,0,0,.26-1.33c-.33-.82-.67-1.64-1-2.45q-7.47-17.22-15-34.45c-.13-.29-.26-.58-.37-.88-.54-1.4-.54-1.47.82-2.29q12.18-7.31,24.38-14.59l13.22-7.91c.48-.29,1-.56,1.46-.84a.85.85,0,0,1,1.09.18c.46.44.9.92,1.32,1.4q13.42,15,26.84,30c3.17,3.52,1.88,3,6.21,1.65,10.86-3.45,21.69-7,32.53-10.51.68-.22,1.36-.48,2.06-.67a1.64,1.64,0,0,0,1.4-1.9c-.05-.88,0-1.77,0-2.65.21-10.51.38-21,.64-31.54.11-4.93-.21-4.13,4.15-4.19q22.75-.32,45.51-.58c1,0,2.08-.1,3.13-.12s1.41.18,1.53,1.32c.31,2.8.59,5.59.87,8.38q.93,9.34,1.84,18.69c.35,3.59.76,7.18,1,10.78a2.36,2.36,0,0,0,1.87,2.39c5.41,1.8,10.79,3.66,16.18,5.5l21.64,7.4c.54.18,1.06.38,1.6.55,1.48.47,1.53.46,2.43-.7.45-.57.87-1.16,1.3-1.74q11-14.81,21.91-29.62c1.88-2.54,1.6-2.35,4.09-.76q18.18,11.57,36.34,23.17c.54.35,1.07.71,1.62,1,1.82,1.1,1.38,1.25.72,2.66-2.07,4.44-4.18,8.86-6.28,13.28L440.24,372c-.21.43-.41.87-.59,1.31a1.19,1.19,0,0,0,.22,1.34l1,1.08q14.32,16.11,28.66,32.2c.21.24.43.48.65.71,1,1,1,1,2.28.49l15.31-6.46,21.51-9.08,1.12-.44a.78.78,0,0,1,1,.4c.16.28.31.56.45.85q10.26,20.85,20.5,41.7c.83,1.67,1.1,1.7-.87,3.05-2.84,2-5.66,3.95-8.49,5.92l-19.57,13.61c-2,1.4-2,1.42-1.6,3.74q2.67,14.31,5.37,28.62l2.73,14.67c.53,2.8.46,2.55,3,2.69,7.77.43,15.54.92,23.31,1.36,4.33.24,8.66.43,13,.67,1.29.06,2.57.17,3.84.32,1,.12,1.16.3,1.21,1.4,0,.56,0,1.13,0,1.69-.07,6.66,0,13.33-.22,20-.26,8.74-.23,17.49-.37,26.24,0,2.63,0,2.6-2.66,2.78-6.16.43-12.32.89-18.49,1.33-2.88.21-5.76.39-8.64.58l-9.61.62a13.62,13.62,0,0,0-1.43.18,1.15,1.15,0,0,0-1,.89c-.15.54-.31,1.08-.45,1.62q-5.35,22-10.74,44c-.68,2.73-.39,2.56,1.51,3.9l27,18.92c.66.46,1.33.91,2,1.38,2.07,1.5,2,1.24.65,3.34l-24.45,39.24c-.3.47-.6.95-.94,1.39C506.24,680.39,506,680.46,505.75,680.6Z" transform="translate(-50.32 -274.56)"/><path class="cls-4" d="M86.45,628.69c-.7-1.72-1.37-3.34-2-5a243.62,243.62,0,0,1-13.29-48.39c-.35-2.06-.63-4.12-.93-6.19-.09-.62.17-.94.75-1a13.87,13.87,0,0,1,1.44.06l13.66,1.19q6.72.59,13.43,1.13c2.56.21,5.12.4,7.68.62.39,0,.79.1,1.19.16a1.21,1.21,0,0,1,1,.91c.14.46.26.93.39,1.39l7,24.53c.62,2.2.61,2.21-1.17,3.87L97.76,618.61l-9.87,9.18A2.52,2.52,0,0,1,86.45,628.69Z" transform="translate(-50.32 -274.56)"/><path class="cls-4" d="M72.23,498.42h-.48c-.8,0-1-.22-.91-1,.4-2.53.78-5.07,1.26-7.59a242.93,242.93,0,0,1,12.74-44.06c.2-.52.4-1,.62-1.56.39-.87.63-1,1.46-.48q7.45,4.41,14.89,8.84l14.67,8.74c.42.24.82.51,1.24.75a1.13,1.13,0,0,1,.54,1.43c-.29,1-.59,2-.89,3q-3.74,12.57-7.48,25.12c-.16.54-.33,1.07-.49,1.61a1.57,1.57,0,0,1-1.56,1.22c-4.63.47-9.25,1-13.87,1.52l-14.81,1.7Z" transform="translate(-50.32 -274.56)"/><path class="cls-4" d="M158.32,394.53l-1.54-.69-19.59-9.19-10.44-4.91a16.21,16.21,0,0,1-1.48-.8.43.43,0,0,1-.1-.62c.27-.39.58-.76.89-1.13a245.91,245.91,0,0,1,38.38-36.28c1.55-1.17,1.58-1.17,2.33.55,4.25,9.78,8.47,19.56,12.74,29.33a2.14,2.14,0,0,1-.41,2.76c-6.5,6.64-13,13.34-19.43,20a6.13,6.13,0,0,1-.69.66A2.87,2.87,0,0,1,158.32,394.53Z" transform="translate(-50.32 -274.56)"/><path class="cls-4" d="M124.28,690.74c.61-.33,1.16-.65,1.73-.93q14.43-7.15,28.89-14.29c.29-.14.57-.29.86-.42,1-.45,1-.44,1.86.37.29.28.56.58.83.87l17.69,18.71.83.88a1.12,1.12,0,0,1,.22,1.32c-.15.37-.27.75-.42,1.13L165.49,727.8c-.15.37-.29.74-.46,1.1-.29.6-.53.66-1.13.25-.33-.23-.65-.47-1-.72a245.53,245.53,0,0,1-37.49-35.86A4,4,0,0,1,124.28,690.74Z" transform="translate(-50.32 -274.56)"/><path class="cls-4" d="M548,500.32,525.12,499c-1.6-.1-3.2-.14-4.81-.23-1.34-.08-1.46-.18-1.71-1.52-.84-4.41-1.65-8.83-2.47-13.24q-1.57-8.4-3.14-16.79c0-.24-.09-.48-.16-.71a2.26,2.26,0,0,1,1.12-2.82c4.71-3.19,9.36-6.48,14-9.74l9.09-6.32,1-.67a.63.63,0,0,1,1,.25c.31.65.55,1.34.8,2a238.32,238.32,0,0,1,12.47,46.89c.19,1.19.37,2.37.52,3.57.07.6-.23.91-.84.88-1.36-.07-2.72-.17-4.08-.26Z" transform="translate(-50.32 -274.56)"/><path class="cls-4" d="M537.05,627.84a3.13,3.13,0,0,1-1.47-.78q-11.24-7.84-22.47-15.72c-.27-.18-.51-.39-.78-.56a1.28,1.28,0,0,1-.61-1.44c.11-.47.2-.94.32-1.41q3.74-15.3,7.47-30.6c.55-2.23.28-2.15,2.87-2.33L549,573.12c1-.07,1.92-.08,2.88-.08a.53.53,0,0,1,.54.64c-.06.72-.16,1.44-.28,2.15a244.71,244.71,0,0,1-14,49.93c-.23.59-.5,1.17-.77,1.75C537.32,627.64,537.16,627.73,537.05,627.84Z" transform="translate(-50.32 -274.56)"/><path class="cls-4" d="M503.37,384.89a4.36,4.36,0,0,1-1.87,1q-12.86,5.44-25.72,10.85c-.37.16-.75.28-1.11.46a1.13,1.13,0,0,1-1.49-.35c-.32-.36-.65-.7-1-1.06l-19.38-21.76c-.27-.3-.52-.61-.8-.9a1.36,1.36,0,0,1-.32-1.74c.12-.21.21-.43.32-.65l11.58-24.34c.17-.35.39-.69.59-1C470.73,348.6,498.71,376.82,503.37,384.89Z" transform="translate(-50.32 -274.56)"/><path class="cls-4" d="M460.82,727.89c-.63-.34-.72-1-.95-1.6q-5-12.51-10-25c-.06-.15-.11-.3-.18-.45a1.5,1.5,0,0,1,.4-2.11,11.13,11.13,0,0,0,.87-.82l20.55-19.25,1.06-1a1.06,1.06,0,0,1,1.3-.26c.36.19.73.33,1.1.49l23.45,10.6,1.3.62a.6.6,0,0,1,.28,1c-.28.39-.6.75-.91,1.12A244.42,244.42,0,0,1,462.24,727,2.73,2.73,0,0,1,460.82,727.89Z" transform="translate(-50.32 -274.56)"/><path class="cls-4" d="M403.35,309.5c-.39.59-.67,1.07-1,1.51L386,333.06l-.15.19c-1.44,1.84-1,1.84-3.31,1.06l-21.17-7.23c-1.66-.57-3.32-1.18-5-1.7a1.77,1.77,0,0,1-1.41-1.69c-.22-2.48-.47-4.95-.72-7.42-.58-5.91-1.2-11.81-1.74-17.72-.35-3.85-.86-3.88,3.23-3.13a242.22,242.22,0,0,1,44.59,12.64c.82.32,1.64.65,2.45,1A3.65,3.65,0,0,1,403.35,309.5Z" transform="translate(-50.32 -274.56)"/><path class="cls-4" d="M227,307c.4-.71,1.08-.77,1.66-1a240.45,240.45,0,0,1,29.05-8.53c5.62-1.28,11.3-2.32,17-3.23,2.7-.44,2.73-.41,2.68,2.25q-.27,13.11-.55,26.22c0,.32,0,.64,0,1a1.17,1.17,0,0,1-.94,1.22l-2.28.75-21,6.82c-.46.14-.93.27-1.38.43a1.1,1.1,0,0,1-1.3-.3c-.28-.28-.56-.57-.83-.87l-21.51-24C227.28,307.46,227.12,307.19,227,307Z" transform="translate(-50.32 -274.56)"/><path class="cls-4" d="M349,774.42c.39-3.87.77-7.62,1.16-11.37q.63-6,1.27-12c.14-1.28.31-2.55.41-3.83a1.37,1.37,0,0,1,1.11-1.36c1.32-.34,2.62-.74,3.93-1.12L380.41,738c.47-.13.94-.23,1.4-.38a1,1,0,0,1,1.26.37c.29.39.58.77.86,1.17q7.59,10.68,15.18,21.39a14.81,14.81,0,0,1,.9,1.42.47.47,0,0,1-.19.62c-.5.25-1,.48-1.53.68a239,239,0,0,1-31.75,9.63q-8.09,1.88-16.29,3.16c-1.22.19-1.36.05-1.32-1.24C348.94,774.62,349,774.46,349,774.42Z" transform="translate(-50.32 -274.56)"/><path class="cls-4" d="M227.81,764a5.77,5.77,0,0,1,1.24-2q8-11.13,16.07-22.24a2.55,2.55,0,0,0,.27-.4,2,2,0,0,1,2.63-.95c5.48,1.52,11,3,16.48,4.48,3.64,1,7.28,2,10.92,3,1.33.37,1.36.4,1.37,1.82,0,4.74,0,9.47.08,14.21,0,4.09.08,8.18.12,12.28a15.7,15.7,0,0,1,0,1.68.68.68,0,0,1-.83.64c-.64-.06-1.28-.11-1.92-.21a244.61,244.61,0,0,1-44.94-11.44A3,3,0,0,1,227.81,764Z" transform="translate(-50.32 -274.56)"/><path class="cls-4" d="M313.57,401.44a7.47,7.47,0,0,1,1.4,2.14q6.86,11.88,13.69,23.79,13.48,23.47,27,46.95,12.41,21.6,24.82,43.2l27.24,47.37q11.15,19.41,22.3,38.82c.16.28.32.55.47.84.37.75.22,1.08-.55,1.12-.56,0-1.13,0-1.69,0l-53.21-.6c-6.9-.08-13.8-.21-20.7-.28l-58-.63q-21.8-.24-43.58-.51-19.38-.23-38.76-.46c-5.06-.06-10.11-.17-15.17-.26h-.72c-1.2-.07-1.34-.27-.82-1.25.42-.78.86-1.54,1.31-2.31q17.49-30.2,35-60.4,16.23-28,32.47-56l29.05-50.21q8.69-15,17.39-30C312.73,402.29,312.9,401.71,313.57,401.44Z" transform="translate(-50.32 -274.56)"/><path class="cls-5" d="M462,634.54a2.41,2.41,0,0,1-.73,1.24c-2.46,3.16-4.9,6.33-7.41,9.46a33.75,33.75,0,0,1-2.91,3.19,7.08,7.08,0,0,1-8,1.66,8.46,8.46,0,0,1-5.75-6.81,5.56,5.56,0,0,1,.2-2.62c.3-.91.6-1.82.9-2.75-.29-.45-.66-.18-1-.08a16.21,16.21,0,0,1-6.43.4c-2.62-.31-5.26-.52-7.89-.78-.64-.06-.81-.43-.41-1,1.07-1.4,2.17-2.77,3.23-4.18a1.57,1.57,0,0,1,1.47-.62l4.55.29c2.24.12,4.49.2,6.72.37a5.32,5.32,0,0,0,5-2.33c.33-.44.65-.9,1-1.33-.36-.85-1.12-1.2-1.73-1.69-2.32-1.84-4.67-3.65-7-5.49-.8-.63-.83-.82-.26-1.56.82-1.09,1.67-2.15,2.51-3.22.34-.44.73-.59,1.22-.2l1.33,1q9.94,7.77,19.88,15.55A4.75,4.75,0,0,1,462,634.54Z" transform="translate(-50.32 -274.56)"/><path class="cls-5" d="M390.37,390.6a6.83,6.83,0,0,0-1.35,2.07c-1.45,2.58-2.87,5.18-4.33,7.76-.42.75-.65.82-1.34.46-1.4-.76-2.79-1.56-4.07-2.27a1.2,1.2,0,0,1,.19-1.25q6.69-12.11,13.41-24.19a8.46,8.46,0,0,1,.52-.76c.67-.14,1.09.28,1.56.54q5.06,2.78,10.1,5.58a25.8,25.8,0,0,1,4.2,2.8,7.41,7.41,0,0,1,2.26,8.68,9.78,9.78,0,0,1-.84,1.72,7.69,7.69,0,0,1-8.37,3.85c-.55-.09-1.09-.22-1.64-.31-.06,0-.14.07-.21.11.4,1.77,1.29,3.41,1.41,5.25s.28,3.52.38,5.28.15,3.35.22,4.95a1,1,0,0,1-1.22-.06c-1.4-.78-2.79-1.57-4.21-2.31a1.66,1.66,0,0,1-.94-1.53c-.24-3-.54-6.06-.81-9.1a3.88,3.88,0,0,1,0-.48A6.57,6.57,0,0,0,390.37,390.6Z" transform="translate(-50.32 -274.56)"/><path class="cls-5" d="M318.28,364.09c-.1,1.35-.17,2.52-.26,3.68s-.21,2.24-.28,3.36c-.23,3.28-.43,6.55-.65,9.83a11.9,11.9,0,0,1-.13,1.2.66.66,0,0,1-.67.57q-2-.06-4.08-.21a.82.82,0,0,1-.81-1c.05-1,.08-2.08.16-3.12.23-3.19.49-6.39.72-9.59.35-4.95.68-9.91,1-14.87,0-.24,0-.48.06-.72.06-.6.43-.8,1-.76l4.31.34a1.1,1.1,0,0,1,.94.64c.29.57.61,1.13.9,1.7l8.55,16.41a2.7,2.7,0,0,0,.8,1.18c.57-.11.39-.6.42-.93.31-4.15.6-8.31.9-12.47.12-1.52.23-3,.37-4.55.08-.87.22-1,1-1a3.85,3.85,0,0,1,.48,0c5.08.31,4.15-.28,3.9,4.19q-.68,11.76-1.62,23.51c-.21,2.72.28,2.76-3,2.41a3.92,3.92,0,0,0-.95-.09c-1.95.29-2.78-.86-3.57-2.42-2.68-5.28-5.48-10.51-8.25-15.75C319.27,365.15,319.12,364.49,318.28,364.09Z" transform="translate(-50.32 -274.56)"/><path class="cls-5" d="M230,406.22l-4.21,2.36a.59.59,0,0,1-.83-.23c-.21-.34-.42-.68-.61-1l-13.06-23.56c-.16-.28-.28-.58-.46-1a5.76,5.76,0,0,1,2.3-1.55c3.35-1.81,2-1.83,5.32,0,5,2.77,9.92,5.59,14.87,8.39.7.4,1.4.78,2.09,1.16.51-.37.21-.71,0-1q-3.61-6.52-7.22-13.05c-.51-.91-1-1.82-1.53-2.83a27.84,27.84,0,0,1,4.38-2.55c.32-.18.61,0,.78.34s.48.83.71,1.25l12.48,22.51c.23.42.47.84.69,1.27s.18.68-.12.86c-1.46.84-2.93,1.65-4.41,2.46a1.15,1.15,0,0,1-1.14-.13c-.85-.46-1.69-.93-2.53-1.4l-14-7.9c-.68-.38-1.38-.72-2.37-1.24a11.49,11.49,0,0,0,1.42,3c.47.92,1,1.82,1.51,2.73s1,1.83,1.51,2.74l1.52,2.74c.5.91,1,1.81,1.5,2.74A13.32,13.32,0,0,1,230,406.22Z" transform="translate(-50.32 -274.56)"/><path class="cls-5" d="M138,533.53c.42,1.57.88,3.26,1.31,5a.65.65,0,0,1-.36.8l-.21.12c-2.91,1.6-3.89,4.16-3.51,7.3s2,5.82,5.25,6.85a14.33,14.33,0,0,0,11.42-1.08c3.2-1.71,4.64-5.08,3.7-9.33a9.53,9.53,0,0,0-1.16-2.89c-1.61-2.72-1.42-2.52-4.59-2.15a.83.83,0,0,0-.77,1c.12,1.6.25,3.2.35,4.8.06,1-.06,1.11-1,1.2s-1.91.19-2.87.26c-.79,0-1.11-.16-1.16-.85q-.37-5.53-.71-11c0-.81.15-1,.88-1.15a3.54,3.54,0,0,1,.47-.07c3.12-.22,6.24-.42,9.36-.66a2.18,2.18,0,0,1,2.07.92c4,5.27,5.67,11.1,4,17.63a12.07,12.07,0,0,1-6,7.82,18.19,18.19,0,0,1-14.86,1.6,13,13,0,0,1-9.14-10,18.54,18.54,0,0,1-.19-8.12,10.32,10.32,0,0,1,6.39-7.87A1.54,1.54,0,0,1,138,533.53Z" transform="translate(-50.32 -274.56)"/><path class="cls-5" d="M265,368.2c-.48-.46-.87-.86-1.3-1.22a5.91,5.91,0,0,0-4.42-1.55,9.18,9.18,0,0,0-6.37,3,7,7,0,0,0-1.82,4.36,15.23,15.23,0,0,0,3.17,10.11,7.7,7.7,0,0,0,8.79,2.77,11.87,11.87,0,0,0,5.65-3.92,1.58,1.58,0,0,0,.33-1.57c-.2-.61-.37-1.22-.58-1.83-.3-.85-.51-.94-1.45-.65-1.53.49-3,1-4.57,1.48-.76.24-.95.14-1.23-.66-.41-1.21-.78-2.43-1.19-3.71a10.63,10.63,0,0,1,1.17-.55q5-1.64,10.06-3.25c1.05-.34,1.16-.28,1.53.83.69,2.05,1.34,4.11,2,6.17.3.92.57,1.84.91,2.74a2.29,2.29,0,0,1-.36,2.46c-3.95,5-9,7.9-15.42,8.13a12.21,12.21,0,0,1-10.05-4.3c-4-4.63-5.74-10-4.45-16.05a12.16,12.16,0,0,1,5.47-7.91A18,18,0,0,1,261.81,360a10,10,0,0,1,8,4.67.65.65,0,0,1-.17,1C268.11,366.54,266.56,367.36,265,368.2Z" transform="translate(-50.32 -274.56)"/><path class="cls-5" d="M177.38,649.29a12.21,12.21,0,0,1-8.91-3.55,18.68,18.68,0,0,1-4.23-5.78,12.29,12.29,0,0,1-.08-10.93,19.14,19.14,0,0,1,12.65-10.27,12.22,12.22,0,0,1,11.07,2.48,17.21,17.21,0,0,1,5.26,6.77,12.53,12.53,0,0,1-1,12.59,21.07,21.07,0,0,1-10.25,8A12.9,12.9,0,0,1,177.38,649.29Z" transform="translate(-50.32 -274.56)"/><path class="cls-5" d="M164.59,496.84a18.46,18.46,0,0,1-1.16,6.13c-2.25,6.46-7.75,9.66-14.16,9.21a22.92,22.92,0,0,1-7.44-1.81,14.45,14.45,0,0,1-3.71-2.19,12.85,12.85,0,0,1-4.85-11.46,20,20,0,0,1,1.24-5.37,13.11,13.11,0,0,1,12.57-8.78,20.46,20.46,0,0,1,10.81,2.78,12.75,12.75,0,0,1,6.35,8.64C164.44,494.92,164.47,495.89,164.59,496.84Z" transform="translate(-50.32 -274.56)"/><path class="cls-5" d="M425.61,397.08a10.73,10.73,0,0,1,6.09,1.59,17.79,17.79,0,0,1,6,5.45,12.79,12.79,0,0,1,1.1,13.44,20,20,0,0,1-8,8.75,12.76,12.76,0,0,1-14.28-.31,17.34,17.34,0,0,1-5.12-5,12.63,12.63,0,0,1-1.08-13,20.67,20.67,0,0,1,8.74-9.31A12.25,12.25,0,0,1,425.61,397.08Z" transform="translate(-50.32 -274.56)"/><path class="cls-5" d="M465.38,491.15c-1.08-.08-1.89-.07-2.68-.2a10.71,10.71,0,0,1-8.36-6.15,19.52,19.52,0,0,1-1-2.2c-1.23-3.48-2.43-7-3.64-10.45-.08-.23-.12-.46-.18-.7a.67.67,0,0,1,.4-.78,6.85,6.85,0,0,1,.89-.35l25.47-8.76c.23-.08.45-.18.68-.24a.74.74,0,0,1,1,.45c.15.37.28.75.41,1.13,1,2.88,2,5.75,3,8.65a37.72,37.72,0,0,1,1.12,4.17,10.21,10.21,0,0,1-2.51,8.94,12.42,12.42,0,0,1-1.72,1.68A24,24,0,0,1,465.38,491.15Z" transform="translate(-50.32 -274.56)"/><path class="cls-5" d="M172.88,471.08c-.42-.2-.8-.34-1.14-.54L148.4,457.06a5.53,5.53,0,0,1-1-.65.74.74,0,0,1-.16-.63,3.26,3.26,0,0,1,.42-.86c1.73-3,3.45-6,5.19-8.95.41-.69.86-1.36,1.31-2,2.8-4.13,6.81-5.54,11.53-4.68a22.3,22.3,0,0,1,11.88,6.44,13.87,13.87,0,0,1,2,2.69,10.28,10.28,0,0,1,1,8.8,17.89,17.89,0,0,1-1.43,3.3c-1.8,3.22-3.66,6.41-5.51,9.6A8.69,8.69,0,0,1,172.88,471.08Z" transform="translate(-50.32 -274.56)"/><path class="cls-5" d="M471.3,607.77l-5.31-2.7a.58.58,0,0,0-.83.21c-.3.47-.53,1-.79,1.48l-4.8,9.43a13.08,13.08,0,0,1-.81,1.47c-.1.15-.4.18-.62.24a.32.32,0,0,1-.22-.06,18,18,0,0,1-3.56-1.94c0-1.36.91-2.34,1.46-3.45,1.51-3.1,3.09-6.16,4.66-9.23a.74.74,0,0,0-.37-1.16l-5.78-2.95c-.57-.29-.91,0-1.16.45l-3.5,6.85c-1.1,2.14-2.18,4.28-3.29,6.42-.38.71-.6.77-1.34.4-1.14-.57-2.26-1.17-3.37-1.74.69-2,9-18.42,10.23-20.19.62-.1,1.07.3,1.56.54l23.56,12a8.3,8.3,0,0,1,1.06.57.6.6,0,0,1,.24.82c-.19.36-.35.72-.54,1.08q-4.2,8.25-8.4,16.5a12.67,12.67,0,0,1-.7,1.24.48.48,0,0,1-.62.21c-1.22-.61-2.43-1.23-3.63-1.87a.48.48,0,0,1-.18-.63c.18-.44.41-.87.63-1.3l5.23-10.28C470.47,609.47,470.82,608.75,471.3,607.77Z" transform="translate(-50.32 -274.56)"/><path class="cls-5" d="M480.51,516.53a.88.88,0,0,1-.5.9.86.86,0,0,1-.23.06c-4.77.73-3.83,1.79-4.8-3-.6-3-1.17-6-1.76-9-.07-.39-.16-.78-.25-1.17a.8.8,0,0,0-1.05-.69c-1.42.28-2.82.61-4.25.83-3.24.51-2.9.48-2.31,3.48q1.22,6.13,2.39,12.28c0,.23.08.47.1.71a.55.55,0,0,1-.33.57,2.78,2.78,0,0,1-.68.25c-4.61.71-3.58,1.64-4.52-2.85-1.18-5.65-2.22-11.33-3.31-17a9.35,9.35,0,0,1-.19-1.18.73.73,0,0,1,.64-.85c.79-.16,1.57-.33,2.36-.48l24.31-4.74.47-.09c1.46-.25,1.62-.17,1.91,1.32q1.86,9.56,3.68,19.13c.19,1,.12,1.11-.79,1.36-.15,0-.3.1-.46.13-4.23.59-3.24,1.52-4.15-2.78-.75-3.52-1.37-7.08-2.05-10.62-.08-.39-.19-.78-.29-1.17a.72.72,0,0,0-.89-.58c-1.66.31-3.31.64-5,1a.72.72,0,0,0-.6.88c.24,1.43.49,2.85.76,4.26.52,2.68,1.06,5.35,1.59,8C480.42,515.89,480.47,516.29,480.51,516.53Z" transform="translate(-50.32 -274.56)"/><path class="cls-5" d="M305.66,380.54c0,.68.06.84.06,1,0,.71-.2,1-1,1.07-1.27.18-2.55.33-3.82.48L285.16,385l-.72.07c-1.12.07-1.29,0-1.42-1.09l-1.44-11.7-1.8-14.57c0-.16,0-.32-.06-.48-.18-1.73-.24-1.86,1.62-2.08,6-.7,11.94-1.49,17.9-2.23a12.34,12.34,0,0,1,1.92-.08.69.69,0,0,1,.51.41c.19,1.26.34,2.54.48,3.81a.59.59,0,0,1-.57.64c-.95.16-1.9.3-2.86.42l-11.46,1.43c-.83.11-1,.29-.95,1,.18,1.68.4,3.35.62,5,.06.48.42.65.87.6l8.83-1.11,4.54-.56a.74.74,0,0,1,.86.64,5.08,5.08,0,0,1,.15.95c.07,1,.12,2.06.18,3.09-.88.75-2,.46-3,.6-3.49.49-7,.9-10.5,1.34-1.07.13-1.22.27-1.11,1.38.2,2,.46,4,.71,6a.82.82,0,0,0,1,.81c.4,0,.8-.05,1.2-.1l13.12-1.67c.24,0,.48-.06.72-.07a.75.75,0,0,1,.83.69C305.48,379.15,305.59,380.1,305.66,380.54Z" transform="translate(-50.32 -274.56)"/><path class="cls-5" d="M381.58,371.52a6.94,6.94,0,0,1-2.38-.6c-4-1.27-7.93-2.57-11.9-3.85-.9-.3-1.11-.19-1.41.69-.49,1.44-1,2.89-1.42,4.35-.22.73-.09,1,.67,1.26s1.38.44,2.06.67q5,1.63,10.06,3.29c1.2.4,1.24.46.82,1.72-1.37,4.1-.5,3.65-4.61,2.34-3.36-1.07-6.72-2.17-10.07-3.26-.45-.15-.78-.07-1,.39l-.1.22-2.07,6.64c1.89,1.27,4.13,1.62,6.22,2.34,2.8,1,5.64,1.84,8.46,2.77.93.31,1,.52.77,1.38-.39,1.21-.82,2.41-1.19,3.52a3.14,3.14,0,0,1-1.8-.28q-9-2.92-18.07-5.88a10.89,10.89,0,0,1-1.35-.49A.63.63,0,0,1,353,388c.14-.46.28-.92.43-1.38l8-24.47a4.25,4.25,0,0,1,.93-2l4.1,1.33L381,366.19c.53.17,1.06.36,1.58.55a.58.58,0,0,1,.42.75A23.59,23.59,0,0,1,381.58,371.52Z" transform="translate(-50.32 -274.56)"/><path class="cls-5" d="M139.83,593a3.35,3.35,0,0,1-.79-1.82q-2.39-8.8-4.73-17.64c-.11-.39-.18-.78-.27-1.17a.73.73,0,0,1,.53-.92c.3-.11.6-.22.91-.3,3.82-.94,3.06-1.3,4.06,2.33.94,3.39,1.84,6.8,2.76,10.2.15.55.31,1.08.47,1.62s.48.57.93.45a37.07,37.07,0,0,0,5.27-1.56c.33-1.82-.64-3.41-1-5.09-.57-2.58-1.35-5.11-2-7.67a11,11,0,0,1-.25-1.17.63.63,0,0,1,.46-.73,2.49,2.49,0,0,1,.45-.18c4.53-1.07,3.48-1.7,4.72,2.57.93,3.23,1.73,6.5,2.61,9.75.29,1.08.5,1.21,1.52,1q2.91-.75,5.8-1.55c.74-.21.88-.48.67-1.25L158.48,567a7,7,0,0,1-.44-2.37,13.42,13.42,0,0,1,3.19-1c1.44-.39,1.47-.37,1.84,1,1.13,4.18,2.24,8.36,3.36,12.54.62,2.32,1.26,4.63,1.86,7,.28,1.06.18,1.22-.9,1.51q-7.65,2.1-15.31,4.15-5.1,1.38-10.21,2.72C141.18,592.68,140.48,592.82,139.83,593Z" transform="translate(-50.32 -274.56)"/><path class="cls-5" d="M188.3,416.65c.74.61,1.3,1.05,1.83,1.52s1.18,1.07,1.88,1.7a12,12,0,0,1-1.77,2.24c-.67.8-1.36,1.58-2.05,2.37l-1.89,2.17L184.25,429c-.62.72-1.22,1.45-1.89,2.25,1.92,1.95,4,3.58,6.07,5.42l10.8-12.41a16.26,16.26,0,0,1,3.62,2.76.57.57,0,0,1,0,.66,3.47,3.47,0,0,1-.44.57q-6.78,7.82-13.57,15.61a6.15,6.15,0,0,1-.68.56c-2-1.47-3.75-3.18-5.62-4.78s-3.75-3.26-5.63-4.89l-5.63-4.89-5.66-4.93c.33-.45.53-.79.79-1.08q6.3-7.28,12.61-14.53c.26-.3.54-.59.83-.87a.48.48,0,0,1,.65-.06c1,.88,2.06,1.78,3.08,2.69a.48.48,0,0,1,0,.65c-.33.45-.7.87-1.07,1.3l-8.52,9.8c-.56.65-.55.85.05,1.39,1.19,1.07,2.41,2.11,3.62,3.17a.76.76,0,0,0,1.23,0c1.06-1.21,2.12-2.41,3.17-3.62C184.13,421.44,186.12,419.14,188.3,416.65Z" transform="translate(-50.32 -274.56)"/><path class="cls-5" d="M435,430.87a16.9,16.9,0,0,1,2.52,2.64c1.32,1.44,1.33,1.47.25,3.13a5.61,5.61,0,0,0-.14,6.34,9.57,9.57,0,0,0,2.31,2.75,4.51,4.51,0,0,0,3.1,1.09,3,3,0,0,0,3.08-3.69,13.43,13.43,0,0,0-.7-2.29c-.52-1.43-1.07-2.85-1.64-4.26a21,21,0,0,1-1.21-4.15,8,8,0,0,1,6.38-9.51,7,7,0,0,1,5.11.85A15.68,15.68,0,0,1,461.91,435c.49,3-.76,5.48-3,7.46a.56.56,0,0,1-.84-.06c-1-1.24-2-2.49-3-3.76a.82.82,0,0,1,.09-1.09c1.92-2.3,1.23-4.45-.34-6.55a8.2,8.2,0,0,0-2.06-2,3.46,3.46,0,0,0-1.78-.64,2.14,2.14,0,0,0-2.33,1.94,5.21,5.21,0,0,0,.27,2.38c.48,1.36,1,2.7,1.51,4.05a31.69,31.69,0,0,1,1.81,5.72,8.72,8.72,0,0,1-7,10.13,8.58,8.58,0,0,1-6.67-1.29,18.44,18.44,0,0,1-7.15-9.69,9.1,9.1,0,0,1,1-7.63A10,10,0,0,1,435,430.87Z" transform="translate(-50.32 -274.56)"/><path class="cls-5" d="M426,674.37l-4.28,3.71a2,2,0,0,1-1.24-.91q-5.3-6.07-10.56-12.18a41.47,41.47,0,0,1-2.92-3.82,8.48,8.48,0,0,1,.18-10.32,19.12,19.12,0,0,1,7.25-6.2c3.55-1.71,7-1.46,10.08,1.21a40,40,0,0,1,3.74,3.74c3.46,3.9,6.86,7.85,10.28,11.78.21.24.41.49.61.75a.61.61,0,0,1-.08.86c-1.31,1.17-2.65,2.31-4.06,3.54-.67-.76-1.26-1.4-1.84-2.06q-4.74-5.44-9.48-10.89a30.71,30.71,0,0,0-2.49-2.61,4.8,4.8,0,0,0-5.78-.74,8.46,8.46,0,0,0-3.2,2.85,4.1,4.1,0,0,0-.12,4.76,34.64,34.64,0,0,0,2.78,3.61c3.13,3.66,6.3,7.27,9.45,10.91C424.8,673,425.3,673.58,426,674.37Z" transform="translate(-50.32 -274.56)"/><path class="cls-5" d="M476.28,592.31a18.54,18.54,0,0,1-1.9-.27c-5.64-1.32-8.31-5.36-7.25-11,.38-2,.89-4.07,1.47-6.07s.29-1.88-1.46-2.37c-2.39-.67-4.79-1.29-7.19-1.93-.38-.11-.77-.21-1.14-.35a.71.71,0,0,1-.46-1c.06-.23.1-.47.18-.7.47-1.34.51-2.83,1.32-4.06,1.47-.13,2.79.52,4.16.88,7.58,2,15.14,4.05,22.71,6.09,2,.54,2,.55,1.49,2.53-.94,3.47-1.88,7-2.85,10.42a26.42,26.42,0,0,1-.93,2.72C483.07,590.5,480.31,592.32,476.28,592.31Z" transform="translate(-50.32 -274.56)"/><path class="cls-5" d="M300.2,699.76l-1.16.65a7.74,7.74,0,0,1-9.11-1.18,9.46,9.46,0,0,1-2.73-4.72,11.55,11.55,0,0,1,.82-7.75,8.82,8.82,0,0,1,8.23-5.3,9.35,9.35,0,0,1,8.9,5.09,12,12,0,0,1,1.39,4.82,34.29,34.29,0,0,1-1,11.93,15,15,0,0,1-1.8,4.18,10.17,10.17,0,0,1-12.91,3.72c-2.86-1.28-4-3.75-4.36-6.71a.43.43,0,0,1,.4-.5q2.28-.12,4.56-.15a.76.76,0,0,1,.53.39,6.92,6.92,0,0,1,.25.92,3.31,3.31,0,0,0,5.31,1.44,4.27,4.27,0,0,0,1.12-1.24A12.34,12.34,0,0,0,300.2,699.76Z" transform="translate(-50.32 -274.56)"/><path class="cls-5" d="M320.69,694.52a8.58,8.58,0,0,1,3-2,8,8,0,0,1,7.9,1.53c4.32,3.41,4.46,11,1.54,14.65-3.36,4.22-11.5,5.45-15.72-.87a12.46,12.46,0,0,1-1.67-3.72,32.31,32.31,0,0,1-1-13.34,12.24,12.24,0,0,1,1-3.45,10.16,10.16,0,0,1,11.6-5.57,7.83,7.83,0,0,1,5.71,5.64c.17.54,0,.87-.67,1-.94.22-1.88.41-2.82.59-1.41.28-1.48.31-2.19-1a3.3,3.3,0,0,0-5.14-.85,4.53,4.53,0,0,0-1.34,2A11.16,11.16,0,0,0,320.69,694.52Z" transform="translate(-50.32 -274.56)"/><path class="cls-5" d="M187.73,655.69c1.28.66,2.36,1.19,3.41,1.76a5.35,5.35,0,0,1,1.61,1c.48.57-.13,1.2-.26,1.81-1.13,5.36,4.56,9.06,8.47,7.84a10.41,10.41,0,0,0,3.75-2.09,21.44,21.44,0,0,0,4.63-5.5,11.21,11.21,0,0,0,1.16-2.63,6.45,6.45,0,0,0-2.16-6.93,6.16,6.16,0,0,0-6.75-1,1.45,1.45,0,0,1-.22.09c-.76.23-1.37,1.14-2.13.94-1-.26-1.11-1.47-1.7-2.21-.15-.19-.25-.41-.38-.61-1.37-2.23-1.52-2.09.9-3.3a11.1,11.1,0,0,1,11.85.76,13.78,13.78,0,0,1,6.32,9,12.61,12.61,0,0,1-.93,7.76,20.46,20.46,0,0,1-8.92,9.79,12.52,12.52,0,0,1-13.46-.53,14.84,14.84,0,0,1-4.88-4.9C185.94,663.22,185.83,659.64,187.73,655.69Z" transform="translate(-50.32 -274.56)"/><path class="cls-5" d="M352.54,701.88c.48.31.93.09,1.39,0l8.32-2.39c.94-.26,1.07-.21,1.35.78a17.84,17.84,0,0,1,1,3.88,2.86,2.86,0,0,1-1.58.69c-5.23,1.52-10.47,3-15.71,4.51-.38.11-.77.24-1.16.33-.57.13-.86-.11-.93-.75a13.63,13.63,0,0,1,1.05-6.83c.73-1.69,1.59-3.33,2.46-4.94s1.95-3.32,2.9-5a29.07,29.07,0,0,0,1.38-2.8,6.16,6.16,0,0,0,.16-4.47,3.47,3.47,0,0,0-3.9-2.49,3.85,3.85,0,0,0-3.65,3.52c-.07.71.33,1.55-.15,2.1s-1.47.52-2.25.65c-.24,0-.48.06-.71.12-2.42.61-2.58.48-2.61-2a8,8,0,0,1,3.94-7.26,12.41,12.41,0,0,1,8.26-2,8.13,8.13,0,0,1,7,7.46,12.84,12.84,0,0,1-1.32,7c-.69,1.44-1.51,2.82-2.3,4.21-.63,1.12-1.32,2.2-2,3.32A6.06,6.06,0,0,0,352.54,701.88Z" transform="translate(-50.32 -274.56)"/><path class="cls-6" d="M466.91,549.27h-3.8a.83.83,0,0,1-.93-.86c0-.32,0-.64,0-1l.36-18c0-.24,0-.48.05-.72a.6.6,0,0,1,.64-.57c.4,0,.8,0,1.2,0l26.2.46a7.7,7.7,0,0,1,1,0,.74.74,0,0,1,.74.78c0,1.52-.09,3-.16,4.55a.61.61,0,0,1-.62.6c-.64,0-1.28,0-1.92,0l-19.95-.28c-.48,0-1,0-1.44,0a.71.71,0,0,0-.74.76c0,.56,0,1.12-.05,1.68-.06,3.36-.1,6.73-.18,10.09A4.89,4.89,0,0,1,466.91,549.27Z" transform="translate(-50.32 -274.56)"/><path class="cls-5" d="M165.42,592a22.69,22.69,0,0,1,3.71-2,.58.58,0,0,1,.8.3c.2.35.39.7.58,1.06l7.85,15.4c.15.28.3.57.43.86.34.75.28,1-.37,1.38-.35.2-.71.37-1.07.55q-11.44,5.84-22.89,11.65a3,3,0,0,1-1.92.6L150.11,617c.29-.8,1-.92,1.53-1.19,6-3.07,12-6.11,18-9.17l1.7-.89a.7.7,0,0,0,.35-1c-.23-.51-.5-1-.76-1.5-1.59-3.13-3.2-6.27-4.79-9.41A3.63,3.63,0,0,1,165.42,592Z" transform="translate(-50.32 -274.56)"/><path class="cls-5" d="M234.16,675.58a8.32,8.32,0,1,1-8.41,8.36A8.32,8.32,0,0,1,234.16,675.58Z" transform="translate(-50.32 -274.56)"/><path class="cls-5" d="M392.12,674.11a8.31,8.31,0,1,1-8.32,8.21A8.28,8.28,0,0,1,392.12,674.11Z" transform="translate(-50.32 -274.56)"/><path class="cls-6" d="M270.39,685.83c-2.48.81-4.89,1.9-7.65,1.64a17.53,17.53,0,0,1,1.05-4.28c.15-.53.68-.65,1.16-.7a15.41,15.41,0,0,0,3.48-.86,11.86,11.86,0,0,0,5.23-3.27,1.27,1.27,0,0,1,1.49-.44c.76.24,1.54.42,2.31.64,1.19.34,1.22.6.9,1.7-2.53,8.76-5,17.53-7.54,26.3a12.63,12.63,0,0,1-.48,1.24,25.82,25.82,0,0,1-4.81-1.29.59.59,0,0,1-.44-.73c.1-.47.22-.94.35-1.4q2.37-8.31,4.75-16.61A2.6,2.6,0,0,0,270.39,685.83Z" transform="translate(-50.32 -274.56)"/><path class="cls-6" d="M132.35,517.17c2.24.18,4.48.34,6.71.54q10.06.88,20.12,1.8l.71.06a.72.72,0,0,1,.73.78c-.13,1.6-.29,3.19-.47,4.78a.59.59,0,0,1-.69.51c-.32,0-.64-.07-1-.09l-14.13-1.23-12.45-1.07a6.08,6.08,0,0,1-.95-.16.75.75,0,0,1-.65-.85c.13-1.44.27-2.88.38-4.31a.77.77,0,0,1,.94-.81l.72,0Z" transform="translate(-50.32 -274.56)"/><path class="cls-6" d="M346.6,386.89c-1.49-.3-3.06-.6-4.62-.94-.72-.16-.93-.46-.78-1.22.47-2.36,1-4.71,1.47-7.06l4-19.06c.12-.55.27-1.09.4-1.64a.58.58,0,0,1,.68-.52c1.57.31,3.13.64,4.69,1a.65.65,0,0,1,.48.74c0,.39-.09.79-.17,1.19q-2.76,12.93-5.53,25.87A2.45,2.45,0,0,1,346.6,386.89Z" transform="translate(-50.32 -274.56)"/><path class="cls-5" d="M197.73,393.06c.16-.29.18-.38.24-.43a29.43,29.43,0,0,1,4.19-3.18c1.56.93,2.34,2.55,3.41,3.9,4.58,5.78,9.09,11.6,13.63,17.41.49.63,1,1.27,1.53,2a40.31,40.31,0,0,1-4.41,3.57c-.71-.1-.95-.65-1.29-1.08l-16.57-21.21C198.22,393.75,198,393.42,197.73,393.06Z" transform="translate(-50.32 -274.56)"/><path class="cls-1" d="M317.58,422.23c.45.73.92,1.46,1.34,2.2l16.8,30.05,30.79,55L397,563.92c2,3.58,4,7.14,6,10.72.35.63.69,1.26,1,1.92a.45.45,0,0,1-.4.68c-.72,0-1.44,0-2.17,0l-63.32-.4c-.81,0-1.61,0-2.41.06a.61.61,0,0,0-.61.61q-.07,1-.06,1.92.17,7.35.34,14.69c.07,2.7.09,2.72-2.5,2.71l-12.52-.08c-.49,0-1,0-1.45-.06a.77.77,0,0,1-.76-.77c0-.8-.07-1.6-.07-2.4q-.24-47.07-.48-94.15-.18-37-.39-73.93c0-1,0-2.07,0-3.11Z" transform="translate(-50.32 -274.56)"/><path class="cls-1" d="M246.92,576.63a7.68,7.68,0,0,0,2.92.24l28.42,0h1.2c2.76,0,2.61-.23,2.61,2.61q0,7.34,0,14.69c0,.55,0,1.12-.08,1.67a.66.66,0,0,1-.62.63c-.72.05-1.44.08-2.16.08l-37.32.06-29.38,0c-.72,0-1.44,0-2.16,0a.45.45,0,0,1-.41-.68c.25-.58.55-1.15.86-1.71q16.05-28.39,32.09-56.79,15.28-27,30.54-54.07,3.8-6.7,7.6-13.4c.19-.35.42-.68.62-1,.79.12.55.73.56,1.14q.07,8.54.11,17.09c0,8.59,0,17.18.11,25.77a8.07,8.07,0,0,1-1.16,4.31q-16.43,28.32-32.79,56.67C248,574.71,247.52,575.55,246.92,576.63Z" transform="translate(-50.32 -274.56)"/><path class="cls-1" d="M309.58,422.5c0,1.19,0,2.14,0,3.09q0,77.93.08,155.83c0,4.5,0,9,0,13.49,0,2.13,0,2.16-2.12,2.17l-14.69.06c-.41,0-.81,0-1.21,0a.77.77,0,0,1-.77-.76c0-.64-.06-1.29-.06-1.93q0-68.4,0-136.8a7.13,7.13,0,0,1,.8-3.69c5.61-10,11.16-20.05,16.74-30.08A2.43,2.43,0,0,1,309.58,422.5Z" transform="translate(-50.32 -274.56)"/><path class="cls-7" d="M448.46,631.59a68.65,68.65,0,0,1,6.07,4.65c-1.91,2.38-3.63,4.68-5.53,6.83-1.66,1.88-4,1.73-5.61-.15a3.21,3.21,0,0,1-.51-3.78c.07-.14.14-.29.22-.42A85.09,85.09,0,0,1,448.46,631.59Z" transform="translate(-50.32 -274.56)"/><path class="cls-7" d="M396.43,379.6a78.45,78.45,0,0,1,7.72,4.41,3.59,3.59,0,0,1-.1,6.07,2.93,2.93,0,0,1-2.71.54,9.49,9.49,0,0,1-1.56-.6c-2.12-1.11-4.23-2.25-6.34-3.38-.36-.2-.76-.48-.53-.92A51.64,51.64,0,0,1,396.43,379.6Z" transform="translate(-50.32 -274.56)"/><path class="cls-8" d="M176.61,643.38c-4.82.29-10.27-6-7-11.78a14.53,14.53,0,0,1,8.9-6.91,7.29,7.29,0,0,1,8.16,2.7,7.62,7.62,0,0,1,.95,8.56,10.37,10.37,0,0,1-1.79,2.55,18.13,18.13,0,0,1-4.74,3.66A8.4,8.4,0,0,1,176.61,643.38Z" transform="translate(-50.32 -274.56)"/><path class="cls-8" d="M147.59,488.76a17.89,17.89,0,0,1,7.49,2.16,8,8,0,0,1-3.69,15,15.71,15.71,0,0,1-9-2.23,7.52,7.52,0,0,1-3.59-8.66,7.63,7.63,0,0,1,7.25-6.27C146.39,488.75,146.71,488.76,147.59,488.76Z" transform="translate(-50.32 -274.56)"/><path class="cls-8" d="M434.33,411a6.2,6.2,0,0,1-.68,3.12,15.9,15.9,0,0,1-7,7.38,7.92,7.92,0,0,1-11.43-5.11,7.51,7.51,0,0,1,.37-4.95,15.28,15.28,0,0,1,7.23-7.76C428,401.07,434.3,405.07,434.33,411Z" transform="translate(-50.32 -274.56)"/><path class="cls-8" d="M474.9,468.75a32.57,32.57,0,0,1,2.16,6.72,5.64,5.64,0,0,1-2.17,5.77,8.06,8.06,0,0,1-1.38.95,24.2,24.2,0,0,1-8.64,2.82c-.39,0-.79.06-1.19.07a5.18,5.18,0,0,1-5-3.1,45.35,45.35,0,0,1-2.31-6.31.69.69,0,0,1,.46-.95c.3-.12.59-.25.89-.36l15.92-5.45A1.64,1.64,0,0,1,474.9,468.75Z" transform="translate(-50.32 -274.56)"/><path class="cls-8" d="M154.37,453.42c1.11-1.83,2.09-3.49,3.11-5.12a9,9,0,0,1,1.18-1.51,5.34,5.34,0,0,1,5.26-1.67A20.6,20.6,0,0,1,174.21,451a5.12,5.12,0,0,1,1,5.8c-.06.15-.11.3-.18.44q-1.51,2.75-3,5.47a.78.78,0,0,1-1.21.28l-2.71-1.57-11.47-6.61C156,454.42,155.29,454,154.37,453.42Z" transform="translate(-50.32 -274.56)"/><path class="cls-7" d="M482.15,576.59a30.68,30.68,0,0,1-2,7,3.88,3.88,0,0,1-4.76,2.24,4,4,0,0,1-3-4.34,35.75,35.75,0,0,1,1.51-6.53.6.6,0,0,1,.77-.4Z" transform="translate(-50.32 -274.56)"/><path class="cls-7" d="M292.59,692.19a8.67,8.67,0,0,1,.58-3.52,3.49,3.49,0,0,1,6.29-.8,4.17,4.17,0,0,1,.68,1.26,8.28,8.28,0,0,1-.29,5.86,3.68,3.68,0,0,1-6.7.25A5.71,5.71,0,0,1,292.59,692.19Z" transform="translate(-50.32 -274.56)"/><path class="cls-7" d="M329.53,703.07a12.29,12.29,0,0,1-.3,1.7,3.42,3.42,0,0,1-5.38,1.9,4.74,4.74,0,0,1-1.69-2,8.44,8.44,0,0,1-.57-5.17,3.73,3.73,0,0,1,7.13-.85A11.39,11.39,0,0,1,329.53,703.07Z" transform="translate(-50.32 -274.56)"/><path class="cls-4" d="M331.13,477.27c14.28,26.62,28.1,53.31,41.87,80a3.08,3.08,0,0,1-2.11.4l-33.48-.12h-.24c-2,0-2,0-2.12-2-.14-2.4-.28-4.81-.4-7.21-.4-8.1-.77-16.2-1.19-24.29-.54-10.42-1.12-20.84-1.68-31.26q-.34-6.72-.65-13.46C331.1,478.66,331.13,478,331.13,477.27Z" transform="translate(-50.32 -274.56)"/><path d="M638.81,440l12,4.31q-2.82,11.63-9.35,17a24.52,24.52,0,0,1-16.09,5.37q-12,0-19.46-8.56-8.58-9.88-8.58-26.67,0-17.73,8.64-27.75,7.51-8.7,20.19-8.71a24.27,24.27,0,0,1,17.28,6.53q5,4.63,7.26,13.76l-12.25,3.31a15,15,0,0,0-4.69-8.63,12.29,12.29,0,0,0-8.26-3,13.5,13.5,0,0,0-11.11,5.48q-4.29,5.49-4.29,18.11,0,13.11,4.19,18.64a13,13,0,0,0,10.88,5.53,11.69,11.69,0,0,0,8.47-3.52Q637.23,447.64,638.81,440Z" transform="translate(-50.32 -274.56)"/><path d="M658.89,431.22q0-12.39,4-20.4a28.11,28.11,0,0,1,10.34-11.94A29,29,0,0,1,688.67,395q13.17,0,21.47,9.32t8.3,26.53q0,17.4-8.78,27.19-7.71,8.65-20.94,8.65t-21.05-8.56Q658.88,448.3,658.89,431.22Zm12.77-.47q0,12,4.91,17.95a15.17,15.17,0,0,0,12.17,6,15,15,0,0,0,12.13-5.94q4.8-5.92,4.8-18.23,0-12-4.68-17.82a15,15,0,0,0-12.25-5.77,15.23,15.23,0,0,0-12.33,5.81Q671.66,418.55,671.66,430.75Z" transform="translate(-50.32 -274.56)"/><path d="M728.51,465.46V396.7h12.36v57h30.85v11.73Z" transform="translate(-50.32 -274.56)"/><path d="M780.61,465.46V396.14h45.56v11.72H793v15.37h30.85v11.68H793v18.82h34.32v11.73Z" transform="translate(-50.32 -274.56)"/><path d="M866.37,440V428.29h26.71v27.62a32.73,32.73,0,0,1-11.44,7.56,37.38,37.38,0,0,1-14.86,3.17,30.73,30.73,0,0,1-16-4.14,28.6,28.6,0,0,1-11-12.39,43.44,43.44,0,0,1-4.06-19.41q0-11.44,4.11-19.57A29.23,29.23,0,0,1,850.46,399a29.56,29.56,0,0,1,15.7-4q11,0,17.6,5.18t8.51,15.21L880,417.94a14.49,14.49,0,0,0-5.06-8.18,13.91,13.91,0,0,0-8.79-2.84,16.11,16.11,0,0,0-12.82,5.7q-4.9,5.7-4.9,17.37,0,12.54,5.31,19.06a15,15,0,0,0,12.31,5.63,20.16,20.16,0,0,0,7.54-1.58,23.89,23.89,0,0,0,7-4.31V440Z" transform="translate(-50.32 -274.56)"/><path d="M904.17,465.46V396.14h12.36v69.32Z" transform="translate(-50.32 -274.56)"/><path d="M925.87,431.22q0-12.39,4-20.4a28.19,28.19,0,0,1,10.35-11.94A28.93,28.93,0,0,1,955.65,395q13.19,0,21.48,9.32t8.3,26.53q0,17.4-8.78,27.19-7.73,8.65-20.95,8.65t-21-8.56Q925.87,448.3,925.87,431.22Zm12.77-.47q0,12,4.92,17.95a15.17,15.17,0,0,0,12.17,6,14.94,14.94,0,0,0,12.12-5.94q4.81-5.92,4.81-18.23,0-12-4.68-17.82a15,15,0,0,0-12.25-5.77,15.2,15.2,0,0,0-12.33,5.81Q938.65,418.55,938.64,430.75Z" transform="translate(-50.32 -274.56)"/><path d="M1018.94,396.14h22.61q8.57,0,12.93,1.77a21.51,21.51,0,0,1,8,6,29.86,29.86,0,0,1,5.76,10.93,56.65,56.65,0,0,1,2.1,16.69,50,50,0,0,1-2.2,15.63,30.56,30.56,0,0,1-5.56,10.52,21.55,21.55,0,0,1-8.14,5.84,32.56,32.56,0,0,1-12.27,2h-23.27Zm12.36,11.72v45.87h9.3c4,0,6.87-.34,8.66-1a10.4,10.4,0,0,0,4.39-3.14,17.26,17.26,0,0,0,2.83-6.64,64.2,64.2,0,0,0,0-24.09,15.62,15.62,0,0,0-3.58-7,11.51,11.51,0,0,0-5.9-3.35,52.6,52.6,0,0,0-10.06-.62Z" transform="translate(-50.32 -274.56)"/><path d="M1081,465.46V396.14h45.56v11.72h-33.2v15.37h30.85v11.68h-30.85v18.82h34.33v11.73Z" transform="translate(-50.32 -274.56)"/><path d="M1161.6,465.46V396.14H1174v69.32Z" transform="translate(-50.32 -274.56)"/><path d="M1186,465.46V396.14h12l25.13,46.29V396.14h11.55v69.32h-12.47l-24.72-45.21v45.21Z" transform="translate(-50.32 -274.56)"/><path d="M1276.32,440V428.29H1303v27.62a32.83,32.83,0,0,1-11.44,7.56,37.43,37.43,0,0,1-14.87,3.17,30.73,30.73,0,0,1-16-4.14,28.52,28.52,0,0,1-11-12.39,43.44,43.44,0,0,1-4.06-19.41q0-11.44,4.11-19.57A29.28,29.28,0,0,1,1260.41,399a29.6,29.6,0,0,1,15.71-4q11,0,17.6,5.18t8.5,15.21l-12.26,2.6a14.48,14.48,0,0,0-5-8.18,14,14,0,0,0-8.79-2.84,16.1,16.1,0,0,0-12.82,5.7q-4.9,5.7-4.9,17.37,0,12.54,5.31,19.06a15,15,0,0,0,12.31,5.63,20.12,20.12,0,0,0,7.53-1.58,23.63,23.63,0,0,0,7-4.31V440Z" transform="translate(-50.32 -274.56)"/><path d="M1314.53,465.46V396.14h45.56v11.72h-33.2v15.37h30.85v11.68h-30.85v18.82h34.33v11.73Z" transform="translate(-50.32 -274.56)"/><path d="M1371.84,465.46V396.14h12.06L1409,442.43V396.14h11.54v69.32h-12.46l-24.72-45.21v45.21Z" transform="translate(-50.32 -274.56)"/><path d="M1433.24,465.46V396.14h12.36v69.32Z" transform="translate(-50.32 -274.56)"/><path d="M1457.5,465.46V396.14h45.56v11.72h-33.2v15.37h30.85v11.68h-30.85v18.82h34.33v11.73Z" transform="translate(-50.32 -274.56)"/><path d="M1514.71,465.46V396.14h26.1q10,0,14.3,1.86a15.42,15.42,0,0,1,7.05,6.48,21.14,21.14,0,0,1,2.76,11q0,8.14-4.21,13.1t-12,6.24a30.37,30.37,0,0,1,6.59,5.8,80.94,80.94,0,0,1,7.1,11.28l7.45,13.52h-14.79l-9-15.08a97,97,0,0,0-6.58-10.24,9.57,9.57,0,0,0-3.67-2.84,18.14,18.14,0,0,0-6.24-.78h-2.55v28.94Zm12.36-40h9.19c5.62,0,9.2-.22,10.73-.68a6.79,6.79,0,0,0,3.73-2.77,9.61,9.61,0,0,0,1.43-5.53,9,9,0,0,0-1.43-5.32,7.28,7.28,0,0,0-3.88-2.77c-1.16-.34-4.52-.52-10.07-.52h-9.7Z" transform="translate(-50.32 -274.56)"/><path d="M1574.06,431.22q0-12.39,4-20.4a28.24,28.24,0,0,1,10.34-11.94,29,29,0,0,1,15.48-3.93q13.19,0,21.48,9.32t8.3,26.53q0,17.4-8.79,27.19-7.71,8.65-20.94,8.65t-21-8.56Q1574.06,448.3,1574.06,431.22Zm12.77-.47q0,12,4.91,17.95a15.19,15.19,0,0,0,12.18,6,15,15,0,0,0,12.12-5.94q4.82-5.92,4.81-18.23,0-12-4.68-17.82a15,15,0,0,0-12.25-5.77,15.2,15.2,0,0,0-12.33,5.81Q1586.84,418.55,1586.83,430.75Z" transform="translate(-50.32 -274.56)"/><path d="M1640.21,442.86l12.1-1.33q2.06,13.29,13.39,13.29c3.74,0,6.69-.91,8.83-2.72a8.45,8.45,0,0,0,3.22-6.73,7,7,0,0,0-1.12-4,8.14,8.14,0,0,0-3.43-2.72,98.85,98.85,0,0,0-11.13-3.56q-7.92-2.22-11.6-4.82a18.51,18.51,0,0,1-5.84-6.83,19.59,19.59,0,0,1-2.17-9.09,19.11,19.11,0,0,1,2.78-10.21,17.69,17.69,0,0,1,7.69-6.85A28.29,28.29,0,0,1,1665,395q10.83,0,16.91,5.44t6.44,15.56l-12.42.62c-.54-3.72-1.72-6.33-3.52-7.81s-4.38-2.22-7.71-2.22-5.91.64-7.72,1.93a5.74,5.74,0,0,0-2.7,4.81,5.83,5.83,0,0,0,2.45,4.76q2.46,1.93,11.3,4.25,9.35,2.52,13.5,5.28a18.36,18.36,0,0,1,6.36,7.14,23.47,23.47,0,0,1,2.19,10.61,20.89,20.89,0,0,1-6,15.18q-6,6.13-18.77,6.14Q1642.77,466.64,1640.21,442.86Z" transform="translate(-50.32 -274.56)"/><path d="M933.89,512.35H956.5c5.71,0,10,.59,12.93,1.77a21.51,21.51,0,0,1,8,6A30,30,0,0,1,983.24,531a57,57,0,0,1,2.09,16.69,50.06,50.06,0,0,1-2.19,15.63,30.47,30.47,0,0,1-5.57,10.52,21.29,21.29,0,0,1-8.14,5.84,32.56,32.56,0,0,1-12.27,2H933.89Zm12.36,11.73v45.86h9.3c4,0,6.87-.34,8.66-1a10.36,10.36,0,0,0,4.39-3.15,17.26,17.26,0,0,0,2.84-6.63,52,52,0,0,0,1.12-12A50.33,50.33,0,0,0,971.41,535a15.72,15.72,0,0,0-3.57-7,11.57,11.57,0,0,0-5.9-3.36,53.07,53.07,0,0,0-10.07-.61Z" transform="translate(-50.32 -274.56)"/><path d="M995.9,581.67V512.35h45.57v11.73h-33.21v15.36h30.86v11.68h-30.86v18.82h34.33v11.73Z" transform="translate(-50.32 -274.56)"/><path d="M1053.42,581.67V512.92h12.36v57h30.85v11.73Z" transform="translate(-50.32 -274.56)"/><path d="M1127.84,581.67V512.35h19.92q11.13,0,14.56,1a16.28,16.28,0,0,1,9,6.86q3.56,5.25,3.55,13.52a24,24,0,0,1-3.06,12.6,17.33,17.33,0,0,1-7.66,7.15q-4.61,2.06-15.84,2h-8.12v26.15Zm12.36-57.59V543.8h6.86q6.92,0,9.4-.91a8.27,8.27,0,0,0,4.07-3.24,10.13,10.13,0,0,0,1.58-5.76,9.94,9.94,0,0,0-1.64-5.83,8,8,0,0,0-4-3.18q-2.4-.79-10.19-.8Z" transform="translate(-50.32 -274.56)"/><path d="M1185.1,581.67V512.35h45.56v11.73h-33.2v15.36h30.85v11.68h-30.85v18.82h34.32v11.73Z" transform="translate(-50.32 -274.56)"/><path d="M1242.31,581.67V512.35h26.1q10,0,14.3,1.87a15.31,15.31,0,0,1,7,6.48,21.09,21.09,0,0,1,2.76,11q0,8.13-4.22,13.1t-12,6.24a29.62,29.62,0,0,1,6.59,5.79,80.28,80.28,0,0,1,7.1,11.28l7.46,13.52h-14.79l-9-15.08a97,97,0,0,0-6.58-10.24,9.6,9.6,0,0,0-3.68-2.84,18,18,0,0,0-6.23-.78h-2.55v28.94Zm12.36-40h9.19q8.43,0,10.73-.69a6.81,6.81,0,0,0,3.73-2.76,9.66,9.66,0,0,0,1.43-5.54,9,9,0,0,0-1.43-5.32,7.23,7.23,0,0,0-3.89-2.76c-1.15-.35-4.51-.52-10.06-.52h-9.7Z" transform="translate(-50.32 -274.56)"/><path d="M1304.06,512.35h12.36V549.9a85,85,0,0,0,.46,11.39,11.28,11.28,0,0,0,3.92,7.09,14.63,14.63,0,0,0,15.17.74,8.91,8.91,0,0,0,3.71-4.92q1-3.15,1-13.5V512.35h12.37v36.41q0,13.95-1.61,20.17a17.19,17.19,0,0,1-7.26,10.07q-5.64,3.86-14.89,3.85-9.6,0-15-3.19a18.45,18.45,0,0,1-7.81-9q-2.43-5.79-2.43-21.35Zm18.08-4.64,5.79-14.13h13.26l-11.57,14.13Z" transform="translate(-50.32 -274.56)"/><path d="M590.92,661.84l6,2.22q-1.39,6-4.66,8.79a12.9,12.9,0,0,1-17.73-1.65q-4.29-5.1-4.29-13.79,0-9.17,4.31-14.35a12.47,12.47,0,0,1,10.08-4.49,11.87,11.87,0,0,1,8.62,3.37,14.39,14.39,0,0,1,3.62,7.11l-6.11,1.71a7.84,7.84,0,0,0-2.34-4.46,6,6,0,0,0-4.12-1.55,6.64,6.64,0,0,0-5.54,2.84q-2.15,2.83-2.15,9.36,0,6.76,2.09,9.63a6.45,6.45,0,0,0,5.43,2.86,5.7,5.7,0,0,0,4.23-1.82A11.32,11.32,0,0,0,590.92,661.84Z" transform="translate(-50.32 -274.56)"/><path d="M600.93,657.32a24.65,24.65,0,0,1,2-10.55,14.43,14.43,0,0,1,5.17-6.18,14.07,14.07,0,0,1,7.72-2,13.46,13.46,0,0,1,10.71,4.81q4.14,4.82,4.14,13.72t-4.38,14a13.06,13.06,0,0,1-10.45,4.48,13.21,13.21,0,0,1-10.5-4.43Q600.93,666.15,600.93,657.32Zm6.37-.25q0,6.2,2.45,9.28a7.47,7.47,0,0,0,6.07,3.09,7.36,7.36,0,0,0,6-3.07q2.4-3.06,2.4-9.42t-2.33-9.22a7.78,7.78,0,0,0-12.27,0C608.09,649.76,607.3,652.87,607.3,657.07Z" transform="translate(-50.32 -274.56)"/><path d="M635.56,675V639.18h6l12.53,23.93V639.18h5.76V675h-6.22l-12.33-23.38V675Z" transform="translate(-50.32 -274.56)"/><path d="M664.82,663.33l6-.68q1,6.87,6.68,6.87a6.45,6.45,0,0,0,4.41-1.41,4.46,4.46,0,0,0,1.61-3.48,3.66,3.66,0,0,0-.57-2.08,4,4,0,0,0-1.7-1.4,50,50,0,0,0-5.56-1.85,19,19,0,0,1-5.78-2.49,9.39,9.39,0,0,1-2.92-3.53,10.43,10.43,0,0,1-1.08-4.7,10.16,10.16,0,0,1,1.39-5.28,8.91,8.91,0,0,1,3.83-3.54,13.63,13.63,0,0,1,6-1.19c3.6,0,6.41.93,8.43,2.81s3.1,4.55,3.22,8l-6.2.32a6.28,6.28,0,0,0-1.76-4,5.79,5.79,0,0,0-3.84-1.14,6.42,6.42,0,0,0-3.85,1,3,3,0,0,0-1.35,2.49,3.06,3.06,0,0,0,1.22,2.46q1.23,1,5.64,2.2a23.4,23.4,0,0,1,6.74,2.73,9.36,9.36,0,0,1,3.17,3.69,12.45,12.45,0,0,1,1.09,5.48,11,11,0,0,1-3,7.85q-3,3.18-9.37,3.18Q666.09,675.63,664.82,663.33Z" transform="translate(-50.32 -274.56)"/><path d="M694.94,675V639.18h22.73v6.06H701.1v7.94h15.39v6H701.1V669h17.13V675Z" transform="translate(-50.32 -274.56)"/><path d="M734.54,639.18h6.16v22.68q0,5.5-1.14,8.19a8.83,8.83,0,0,1-3.43,4.13,10.23,10.23,0,0,1-5.62,1.45,8.63,8.63,0,0,1-6.91-2.91q-2.49-2.91-2.52-8.78l5.84-.78a10.41,10.41,0,0,0,.84,4.47,3.22,3.22,0,0,0,3,1.81,3.26,3.26,0,0,0,2.87-1.31q.92-1.3.92-5.8Z" transform="translate(-50.32 -274.56)"/><path d="M746,657.32a24.49,24.49,0,0,1,2-10.55,14.34,14.34,0,0,1,5.16-6.18,14.09,14.09,0,0,1,7.72-2,13.5,13.5,0,0,1,10.72,4.81q4.14,4.82,4.14,13.72t-4.39,14a13,13,0,0,1-10.44,4.48q-6.66,0-10.5-4.43Q746,666.15,746,657.32Zm6.37-.25q0,6.2,2.45,9.28a7.49,7.49,0,0,0,6.08,3.09,7.37,7.37,0,0,0,6.05-3.07q2.4-3.06,2.4-9.42T767,647.73a7.77,7.77,0,0,0-12.26,0C753.17,649.76,752.37,652.87,752.37,657.07Z" transform="translate(-50.32 -274.56)"/><path d="M792.43,639.18h11.28a17.45,17.45,0,0,1,6.45.91,10.87,10.87,0,0,1,4,3.1,15.59,15.59,0,0,1,2.88,5.64,30.3,30.3,0,0,1,1,8.63,26.69,26.69,0,0,1-1.09,8.08,15.9,15.9,0,0,1-2.78,5.44,10.59,10.59,0,0,1-4.06,3,15.62,15.62,0,0,1-6.12,1H792.43Zm6.17,6.06V669h4.64a12.87,12.87,0,0,0,4.32-.53,5.18,5.18,0,0,0,2.19-1.63,9,9,0,0,0,1.41-3.43,34.58,34.58,0,0,0,0-12.45,8.25,8.25,0,0,0-1.78-3.62,5.68,5.68,0,0,0-3-1.73,25.5,25.5,0,0,0-5-.32Z" transform="translate(-50.32 -274.56)"/><path d="M823.37,675V639.18H846.1v6.06H829.54v7.94h15.39v6H829.54V669h17.12V675Z" transform="translate(-50.32 -274.56)"/><path d="M851.88,675V639.18h9.94a31.72,31.72,0,0,1,7.26.51,8.2,8.2,0,0,1,4.5,3.55,12.56,12.56,0,0,1,1.77,7,12.75,12.75,0,0,1-1.53,6.51,8.66,8.66,0,0,1-3.82,3.69q-2.29,1.07-7.9,1.07h-4.05V675Zm6.17-29.78v10.19h3.42a15.62,15.62,0,0,0,4.69-.46,4.12,4.12,0,0,0,2-1.68,6,6,0,0,0,0-6,4,4,0,0,0-2-1.64,19.09,19.09,0,0,0-5.08-.42Z" transform="translate(-50.32 -274.56)"/><path d="M904.94,675h-6.71l-2.68-8.12H883.29L880.76,675h-6.58l11.93-35.84h6.55Zm-11.38-14.18-4.23-13.3-4.15,13.3Z" transform="translate(-50.32 -274.56)"/><path d="M908.2,675V639.18h13q5,0,7.14,1a7.78,7.78,0,0,1,3.51,3.35,11.2,11.2,0,0,1,1.38,5.71,10.36,10.36,0,0,1-2.1,6.77,9.47,9.47,0,0,1-6,3.23,15.2,15.2,0,0,1,3.29,3A41.77,41.77,0,0,1,932,668l3.72,7h-7.38l-4.47-7.8a52.79,52.79,0,0,0-3.28-5.3,4.88,4.88,0,0,0-1.84-1.46,8.67,8.67,0,0,0-3.11-.41h-1.27v15Zm6.17-20.69H919a23.85,23.85,0,0,0,5.36-.35,3.43,3.43,0,0,0,1.86-1.43,5.15,5.15,0,0,0,.71-2.86,4.81,4.81,0,0,0-.71-2.75,3.67,3.67,0,0,0-1.94-1.43,25.41,25.41,0,0,0-5-.27h-4.84Z" transform="translate(-50.32 -274.56)"/><path d="M946,675V645.24h-9.1v-6.06H961.2v6.06h-9.07V675Z" transform="translate(-50.32 -274.56)"/><path d="M989.72,675H983l-2.69-8.12H968.07L965.54,675H959l11.93-35.84h6.55Zm-11.38-14.18-4.23-13.3L970,660.84Z" transform="translate(-50.32 -274.56)"/><path d="M992.88,675V639.18h9.25l5.57,24.47,5.52-24.47h9.3V675h-5.76V646.78L1010.65,675h-5.95l-6.06-28.24V675Z" transform="translate(-50.32 -274.56)"/><path d="M1028.63,675V639.18h22.73v6.06H1034.8v7.94h15.39v6H1034.8V669h17.12V675Z" transform="translate(-50.32 -274.56)"/><path d="M1057.22,675V639.18h6l12.53,23.93V639.18h5.76V675h-6.21L1063,651.64V675Z" transform="translate(-50.32 -274.56)"/><path d="M1094.94,675V645.24h-9.1v-6.06h24.34v6.06h-9.08V675Z" transform="translate(-50.32 -274.56)"/><path d="M1138.69,675H1132l-2.69-8.12H1117l-2.53,8.12h-6.58l11.93-35.84h6.55Zm-11.38-14.18-4.23-13.3-4.15,13.3Z" transform="translate(-50.32 -274.56)"/><path d="M1142.11,675V639.47h6.16V669h15.39V675Z" transform="translate(-50.32 -274.56)"/><path d="M1177.68,663.33l6-.68q1,6.87,6.68,6.87a6.44,6.44,0,0,0,4.4-1.41,4.46,4.46,0,0,0,1.61-3.48,3.73,3.73,0,0,0-.56-2.08,4,4,0,0,0-1.71-1.4,48.78,48.78,0,0,0-5.55-1.85,19,19,0,0,1-5.79-2.49,9.58,9.58,0,0,1-2.92-3.53,10.43,10.43,0,0,1-1.08-4.7,10.16,10.16,0,0,1,1.39-5.28,8.94,8.94,0,0,1,3.84-3.54,13.63,13.63,0,0,1,6-1.19c3.6,0,6.41.93,8.43,2.81s3.09,4.55,3.21,8l-6.19.32a6.33,6.33,0,0,0-1.76-4,5.8,5.8,0,0,0-3.85-1.14,6.44,6.44,0,0,0-3.85,1,3,3,0,0,0-1.35,2.49,3,3,0,0,0,1.23,2.46c.82.67,2.69,1.4,5.63,2.2a23.28,23.28,0,0,1,6.74,2.73,9.36,9.36,0,0,1,3.17,3.69,12.45,12.45,0,0,1,1.1,5.48,11,11,0,0,1-3,7.85c-2,2.12-5.12,3.18-9.36,3.18Q1179,675.63,1177.68,663.33Z" transform="translate(-50.32 -274.56)"/><path d="M1235.42,675h-6.7L1226,666.9h-12.27l-2.53,8.12h-6.57l11.92-35.84h6.55ZM1224,660.84l-4.22-13.3-4.16,13.3Z" transform="translate(-50.32 -274.56)"/><path d="M1238.74,675V639.18h6l12.54,23.93V639.18h5.76V675h-6.22l-12.34-23.38V675Z" transform="translate(-50.32 -274.56)"/><path d="M1281.37,675V639.18h9.25l5.57,24.47,5.52-24.47h9.3V675h-5.76V646.78L1299.14,675h-6l-6.06-28.24V675Z" transform="translate(-50.32 -274.56)"/><path d="M1344.74,675H1338l-2.68-8.12h-12.27l-2.53,8.12H1314l11.93-35.84h6.55Zm-11.37-14.18-4.23-13.3-4.15,13.3Z" transform="translate(-50.32 -274.56)"/><path d="M1348,675V639.18h13q5,0,7.13,1a7.8,7.8,0,0,1,3.52,3.35,11.2,11.2,0,0,1,1.38,5.71A10.31,10.31,0,0,1,1371,656a9.44,9.44,0,0,1-6,3.23,15.44,15.44,0,0,1,3.29,3,43.84,43.84,0,0,1,3.54,5.83l3.72,7h-7.38l-4.48-7.8a50.9,50.9,0,0,0-3.28-5.3,4.94,4.94,0,0,0-1.83-1.46,8.71,8.71,0,0,0-3.11-.41h-1.28v15Zm6.16-20.69h4.59a23.74,23.74,0,0,0,5.35-.35,3.36,3.36,0,0,0,1.86-1.43,5.07,5.07,0,0,0,.72-2.86,4.74,4.74,0,0,0-.72-2.75,3.6,3.6,0,0,0-1.94-1.43,25.34,25.34,0,0,0-5-.27h-4.84Z" transform="translate(-50.32 -274.56)"/><path d="M1385.77,675V645.24h-9.1v-6.06H1401v6.06h-9.07V675Z" transform="translate(-50.32 -274.56)"/><path d="M1404.83,675V639.18H1411V675Z" transform="translate(-50.32 -274.56)"/><path d="M1417,675V639.18h6l12.54,23.93V639.18h5.76V675h-6.22l-12.33-23.38V675Z" transform="translate(-50.32 -274.56)"/><path d="M1457.94,665.46v-6.87h11.54v6.87Z" transform="translate(-50.32 -274.56)"/><path d="M1492.75,675V645.24h-9.1v-6.06H1508v6.06h-9.08V675Z" transform="translate(-50.32 -274.56)"/><path d="M1536.5,675h-6.7l-2.69-8.12h-12.26l-2.53,8.12h-6.58l11.93-35.84h6.55Zm-11.38-14.18-4.23-13.3-4.15,13.3Z" transform="translate(-50.32 -274.56)"/><path d="M1539.76,675V639.18h13q5,0,7.14,1a7.8,7.8,0,0,1,3.52,3.35,11.3,11.3,0,0,1,1.37,5.71,10.36,10.36,0,0,1-2.1,6.77,9.44,9.44,0,0,1-6,3.23,15.2,15.2,0,0,1,3.29,3,41.77,41.77,0,0,1,3.54,5.83l3.72,7h-7.37l-4.48-7.8a50.9,50.9,0,0,0-3.28-5.3,4.88,4.88,0,0,0-1.84-1.46,8.63,8.63,0,0,0-3.11-.41h-1.27v15Zm6.17-20.69h4.59a23.8,23.8,0,0,0,5.35-.35,3.43,3.43,0,0,0,1.86-1.43,5.15,5.15,0,0,0,.71-2.86,4.81,4.81,0,0,0-.71-2.75,3.64,3.64,0,0,0-1.94-1.43,25.41,25.41,0,0,0-5-.27h-4.84Z" transform="translate(-50.32 -274.56)"/><path d="M1598.27,675h-6.7l-2.69-8.12h-12.26l-2.53,8.12h-6.58l11.93-35.84H1586Zm-11.38-14.18-4.23-13.3-4.15,13.3Z" transform="translate(-50.32 -274.56)"/><path d="M1601.51,675V639.18h9.93a31.89,31.89,0,0,1,7.27.51,8.23,8.23,0,0,1,4.5,3.55,12.56,12.56,0,0,1,1.77,7,12.75,12.75,0,0,1-1.53,6.51,8.77,8.77,0,0,1-3.82,3.69c-1.53.71-4.17,1.07-7.9,1.07h-4.06V675Zm6.16-29.78v10.19h3.43a15.5,15.5,0,0,0,4.68-.46,4.08,4.08,0,0,0,2-1.68,5.94,5.94,0,0,0,0-6,4,4,0,0,0-2-1.64,19,19,0,0,0-5.08-.42Z" transform="translate(-50.32 -274.56)"/><path d="M1628.8,657.32a24.65,24.65,0,0,1,2-10.55,14.48,14.48,0,0,1,5.16-6.18,14.13,14.13,0,0,1,7.73-2,13.46,13.46,0,0,1,10.71,4.81q4.14,4.82,4.14,13.72t-4.38,14a13.06,13.06,0,0,1-10.45,4.48,13.21,13.21,0,0,1-10.5-4.43Q1628.8,666.15,1628.8,657.32Zm6.37-.25q0,6.2,2.45,9.28a7.47,7.47,0,0,0,6.07,3.09,7.36,7.36,0,0,0,6-3.07q2.4-3.06,2.4-9.42t-2.33-9.22a7.78,7.78,0,0,0-12.27,0C1636,649.76,1635.17,652.87,1635.17,657.07Z" transform="translate(-50.32 -274.56)"/><path d="M1670.26,675V645.24h-9.1v-6.06h24.34v6.06h-9.07V675Z" transform="translate(-50.32 -274.56)"/><path d="M1687.51,657.32a24.49,24.49,0,0,1,2-10.55,14.34,14.34,0,0,1,5.16-6.18,14.07,14.07,0,0,1,7.72-2,13.46,13.46,0,0,1,10.71,4.81q4.14,4.82,4.15,13.72t-4.39,14a13,13,0,0,1-10.45,4.48q-6.65,0-10.49-4.43Q1687.51,666.15,1687.51,657.32Zm6.37-.25q0,6.2,2.45,9.28a7.49,7.49,0,0,0,6.08,3.09,7.37,7.37,0,0,0,6-3.07q2.38-3.06,2.39-9.42c0-4.16-.77-7.23-2.33-9.22a7.77,7.77,0,0,0-12.26,0C1694.67,649.76,1693.88,652.87,1693.88,657.07Z" transform="translate(-50.32 -274.56)"/></svg>